<mxfile host="app.diagrams.net" agent="Mozilla/5.0 (Macintosh; Intel Mac OS X 10_15_7) AppleWebKit/537.36 (KHTML, like Gecko) Chrome/135.0.0.0 Safari/537.36" version="26.2.12">
  <diagram name="第 1 页" id="7rovGdWfZn7G_NeXz2GA">
    <mxGraphModel dx="832" dy="899" grid="0" gridSize="10" guides="1" tooltips="1" connect="1" arrows="1" fold="1" page="0" pageScale="1" pageWidth="827" pageHeight="1169" math="0" shadow="0">
      <root>
        <mxCell id="0" />
        <mxCell id="1" parent="0" />
        <mxCell id="0_MPUR2QSUnyPUdipwsz-4" value="" style="edgeStyle=none;curved=1;rounded=0;orthogonalLoop=1;jettySize=auto;html=1;fontSize=12;startSize=8;endSize=8;" parent="1" source="0_MPUR2QSUnyPUdipwsz-1" target="0_MPUR2QSUnyPUdipwsz-3" edge="1">
          <mxGeometry relative="1" as="geometry" />
        </mxCell>
        <mxCell id="0_MPUR2QSUnyPUdipwsz-1" value="AI App 1" style="rounded=0;whiteSpace=wrap;html=1;fillColor=#f5f5f5;fontColor=#333333;strokeColor=#666666;" parent="1" vertex="1">
          <mxGeometry x="284" y="142" width="120" height="60" as="geometry" />
        </mxCell>
        <mxCell id="0_MPUR2QSUnyPUdipwsz-6" value="" style="edgeStyle=none;curved=1;rounded=0;orthogonalLoop=1;jettySize=auto;html=1;fontSize=12;startSize=8;endSize=8;" parent="1" source="0_MPUR2QSUnyPUdipwsz-3" target="0_MPUR2QSUnyPUdipwsz-5" edge="1">
          <mxGeometry relative="1" as="geometry" />
        </mxCell>
        <mxCell id="0_MPUR2QSUnyPUdipwsz-3" value="Custom implementation" style="rounded=0;whiteSpace=wrap;html=1;fillColor=#bac8d3;strokeColor=#23445d;" parent="1" vertex="1">
          <mxGeometry x="434" y="142" width="120" height="60" as="geometry" />
        </mxCell>
        <mxCell id="0_MPUR2QSUnyPUdipwsz-9" value="" style="edgeStyle=none;curved=1;rounded=0;orthogonalLoop=1;jettySize=auto;html=1;fontSize=12;startSize=8;endSize=8;" parent="1" source="0_MPUR2QSUnyPUdipwsz-5" target="0_MPUR2QSUnyPUdipwsz-8" edge="1">
          <mxGeometry relative="1" as="geometry" />
        </mxCell>
        <mxCell id="0_MPUR2QSUnyPUdipwsz-5" value="Custom prompt logic" style="rounded=0;whiteSpace=wrap;html=1;fillColor=#fad7ac;strokeColor=#b46504;" parent="1" vertex="1">
          <mxGeometry x="584" y="142" width="157" height="60" as="geometry" />
        </mxCell>
        <mxCell id="0_MPUR2QSUnyPUdipwsz-11" value="" style="edgeStyle=none;curved=1;rounded=0;orthogonalLoop=1;jettySize=auto;html=1;fontSize=12;startSize=8;endSize=8;" parent="1" source="0_MPUR2QSUnyPUdipwsz-8" target="0_MPUR2QSUnyPUdipwsz-10" edge="1">
          <mxGeometry relative="1" as="geometry" />
        </mxCell>
        <mxCell id="0_MPUR2QSUnyPUdipwsz-8" value="Custom tool calls" style="rounded=0;whiteSpace=wrap;html=1;fillColor=#fad9d5;strokeColor=#ae4132;" parent="1" vertex="1">
          <mxGeometry x="773" y="142" width="157" height="60" as="geometry" />
        </mxCell>
        <mxCell id="0_MPUR2QSUnyPUdipwsz-10" value="Custom data access" style="rounded=0;whiteSpace=wrap;html=1;fillColor=#d0cee2;strokeColor=#56517e;" parent="1" vertex="1">
          <mxGeometry x="962" y="142" width="157" height="60" as="geometry" />
        </mxCell>
        <mxCell id="0_MPUR2QSUnyPUdipwsz-14" value="" style="edgeStyle=none;curved=1;rounded=0;orthogonalLoop=1;jettySize=auto;html=1;fontSize=12;startSize=8;endSize=8;" parent="1" source="0_MPUR2QSUnyPUdipwsz-15" target="0_MPUR2QSUnyPUdipwsz-17" edge="1">
          <mxGeometry relative="1" as="geometry" />
        </mxCell>
        <mxCell id="0_MPUR2QSUnyPUdipwsz-15" value="AI App 2" style="rounded=0;whiteSpace=wrap;html=1;fillColor=#f5f5f5;fontColor=#333333;strokeColor=#666666;" parent="1" vertex="1">
          <mxGeometry x="284" y="236" width="120" height="60" as="geometry" />
        </mxCell>
        <mxCell id="0_MPUR2QSUnyPUdipwsz-16" value="" style="edgeStyle=none;curved=1;rounded=0;orthogonalLoop=1;jettySize=auto;html=1;fontSize=12;startSize=8;endSize=8;" parent="1" source="0_MPUR2QSUnyPUdipwsz-17" target="0_MPUR2QSUnyPUdipwsz-19" edge="1">
          <mxGeometry relative="1" as="geometry" />
        </mxCell>
        <mxCell id="0_MPUR2QSUnyPUdipwsz-17" value="Custom implementation" style="rounded=0;whiteSpace=wrap;html=1;fillColor=#bac8d3;strokeColor=#23445d;" parent="1" vertex="1">
          <mxGeometry x="434" y="236" width="120" height="60" as="geometry" />
        </mxCell>
        <mxCell id="0_MPUR2QSUnyPUdipwsz-18" value="" style="edgeStyle=none;curved=1;rounded=0;orthogonalLoop=1;jettySize=auto;html=1;fontSize=12;startSize=8;endSize=8;" parent="1" source="0_MPUR2QSUnyPUdipwsz-19" target="0_MPUR2QSUnyPUdipwsz-21" edge="1">
          <mxGeometry relative="1" as="geometry" />
        </mxCell>
        <mxCell id="0_MPUR2QSUnyPUdipwsz-19" value="Custom prompt logic" style="rounded=0;whiteSpace=wrap;html=1;fillColor=#fad7ac;strokeColor=#b46504;" parent="1" vertex="1">
          <mxGeometry x="584" y="236" width="157" height="60" as="geometry" />
        </mxCell>
        <mxCell id="0_MPUR2QSUnyPUdipwsz-20" value="" style="edgeStyle=none;curved=1;rounded=0;orthogonalLoop=1;jettySize=auto;html=1;fontSize=12;startSize=8;endSize=8;" parent="1" source="0_MPUR2QSUnyPUdipwsz-21" target="0_MPUR2QSUnyPUdipwsz-22" edge="1">
          <mxGeometry relative="1" as="geometry" />
        </mxCell>
        <mxCell id="0_MPUR2QSUnyPUdipwsz-21" value="Custom tool calls" style="rounded=0;whiteSpace=wrap;html=1;fillColor=#fad9d5;strokeColor=#ae4132;" parent="1" vertex="1">
          <mxGeometry x="773" y="236" width="157" height="60" as="geometry" />
        </mxCell>
        <mxCell id="0_MPUR2QSUnyPUdipwsz-22" value="Custom data access" style="rounded=0;whiteSpace=wrap;html=1;fillColor=#d0cee2;strokeColor=#56517e;" parent="1" vertex="1">
          <mxGeometry x="962" y="236" width="157" height="60" as="geometry" />
        </mxCell>
        <mxCell id="0_MPUR2QSUnyPUdipwsz-23" value="" style="edgeStyle=none;curved=1;rounded=0;orthogonalLoop=1;jettySize=auto;html=1;fontSize=12;startSize=8;endSize=8;" parent="1" source="0_MPUR2QSUnyPUdipwsz-24" target="0_MPUR2QSUnyPUdipwsz-26" edge="1">
          <mxGeometry relative="1" as="geometry" />
        </mxCell>
        <mxCell id="0_MPUR2QSUnyPUdipwsz-24" value="AI App 3" style="rounded=0;whiteSpace=wrap;html=1;fillColor=#f5f5f5;fontColor=#333333;strokeColor=#666666;" parent="1" vertex="1">
          <mxGeometry x="281" y="332" width="120" height="60" as="geometry" />
        </mxCell>
        <mxCell id="0_MPUR2QSUnyPUdipwsz-25" value="" style="edgeStyle=none;curved=1;rounded=0;orthogonalLoop=1;jettySize=auto;html=1;fontSize=12;startSize=8;endSize=8;" parent="1" source="0_MPUR2QSUnyPUdipwsz-26" target="0_MPUR2QSUnyPUdipwsz-28" edge="1">
          <mxGeometry relative="1" as="geometry" />
        </mxCell>
        <mxCell id="0_MPUR2QSUnyPUdipwsz-26" value="Custom implementation" style="rounded=0;whiteSpace=wrap;html=1;fillColor=#bac8d3;strokeColor=#23445d;" parent="1" vertex="1">
          <mxGeometry x="431" y="332" width="120" height="60" as="geometry" />
        </mxCell>
        <mxCell id="0_MPUR2QSUnyPUdipwsz-27" value="" style="edgeStyle=none;curved=1;rounded=0;orthogonalLoop=1;jettySize=auto;html=1;fontSize=12;startSize=8;endSize=8;" parent="1" source="0_MPUR2QSUnyPUdipwsz-28" target="0_MPUR2QSUnyPUdipwsz-30" edge="1">
          <mxGeometry relative="1" as="geometry" />
        </mxCell>
        <mxCell id="0_MPUR2QSUnyPUdipwsz-28" value="Custom prompt logic" style="rounded=0;whiteSpace=wrap;html=1;fillColor=#fad7ac;strokeColor=#b46504;" parent="1" vertex="1">
          <mxGeometry x="581" y="332" width="157" height="60" as="geometry" />
        </mxCell>
        <mxCell id="0_MPUR2QSUnyPUdipwsz-29" value="" style="edgeStyle=none;curved=1;rounded=0;orthogonalLoop=1;jettySize=auto;html=1;fontSize=12;startSize=8;endSize=8;" parent="1" source="0_MPUR2QSUnyPUdipwsz-30" target="0_MPUR2QSUnyPUdipwsz-31" edge="1">
          <mxGeometry relative="1" as="geometry" />
        </mxCell>
        <mxCell id="0_MPUR2QSUnyPUdipwsz-30" value="Custom tool calls" style="rounded=0;whiteSpace=wrap;html=1;fillColor=#fad9d5;strokeColor=#ae4132;" parent="1" vertex="1">
          <mxGeometry x="770" y="332" width="157" height="60" as="geometry" />
        </mxCell>
        <mxCell id="0_MPUR2QSUnyPUdipwsz-31" value="Custom data access" style="rounded=0;whiteSpace=wrap;html=1;fillColor=#d0cee2;strokeColor=#56517e;" parent="1" vertex="1">
          <mxGeometry x="959" y="332" width="157" height="60" as="geometry" />
        </mxCell>
        <mxCell id="VnCZ31i4uOvUYMF_YGHu-17" style="edgeStyle=none;curved=1;rounded=0;orthogonalLoop=1;jettySize=auto;html=1;exitX=1;exitY=0.5;exitDx=0;exitDy=0;entryX=0;entryY=0.5;entryDx=0;entryDy=0;fontSize=12;startSize=8;endSize=8;" edge="1" parent="1" source="VnCZ31i4uOvUYMF_YGHu-1" target="VnCZ31i4uOvUYMF_YGHu-8">
          <mxGeometry relative="1" as="geometry" />
        </mxCell>
        <mxCell id="VnCZ31i4uOvUYMF_YGHu-18" style="edgeStyle=none;curved=1;rounded=0;orthogonalLoop=1;jettySize=auto;html=1;fontSize=12;startSize=8;endSize=8;" edge="1" parent="1" source="VnCZ31i4uOvUYMF_YGHu-1" target="VnCZ31i4uOvUYMF_YGHu-9">
          <mxGeometry relative="1" as="geometry" />
        </mxCell>
        <mxCell id="VnCZ31i4uOvUYMF_YGHu-19" style="edgeStyle=none;curved=1;rounded=0;orthogonalLoop=1;jettySize=auto;html=1;exitX=1;exitY=0.5;exitDx=0;exitDy=0;entryX=0;entryY=0.5;entryDx=0;entryDy=0;fontSize=12;startSize=8;endSize=8;" edge="1" parent="1" source="VnCZ31i4uOvUYMF_YGHu-1" target="VnCZ31i4uOvUYMF_YGHu-10">
          <mxGeometry relative="1" as="geometry" />
        </mxCell>
        <mxCell id="VnCZ31i4uOvUYMF_YGHu-1" value="" style="rounded=1;whiteSpace=wrap;html=1;fillColor=#ffe6cc;strokeColor=#d79b00;" vertex="1" parent="1">
          <mxGeometry x="284" y="511" width="271" height="465" as="geometry" />
        </mxCell>
        <mxCell id="VnCZ31i4uOvUYMF_YGHu-2" value="Claude for Desktop" style="rounded=1;whiteSpace=wrap;html=1;fontSize=16;" vertex="1" parent="1">
          <mxGeometry x="315.5" y="579" width="208" height="60" as="geometry" />
        </mxCell>
        <mxCell id="VnCZ31i4uOvUYMF_YGHu-3" value="Cursor" style="rounded=1;whiteSpace=wrap;html=1;fontSize=16;" vertex="1" parent="1">
          <mxGeometry x="315.5" y="657" width="208" height="60" as="geometry" />
        </mxCell>
        <mxCell id="VnCZ31i4uOvUYMF_YGHu-4" value="Goose" style="rounded=1;whiteSpace=wrap;html=1;fontSize=16;" vertex="1" parent="1">
          <mxGeometry x="315.5" y="735" width="208" height="60" as="geometry" />
        </mxCell>
        <mxCell id="VnCZ31i4uOvUYMF_YGHu-5" value="Windsurf" style="rounded=1;whiteSpace=wrap;html=1;fontSize=16;" vertex="1" parent="1">
          <mxGeometry x="315.5" y="813" width="208" height="60" as="geometry" />
        </mxCell>
        <mxCell id="VnCZ31i4uOvUYMF_YGHu-6" value="&lt;b&gt;Your Client&lt;/b&gt;" style="rounded=1;whiteSpace=wrap;html=1;fontSize=16;" vertex="1" parent="1">
          <mxGeometry x="315.5" y="892" width="208" height="60" as="geometry" />
        </mxCell>
        <mxCell id="VnCZ31i4uOvUYMF_YGHu-7" value="Any MCP Client" style="text;strokeColor=none;fillColor=none;html=1;align=center;verticalAlign=middle;whiteSpace=wrap;rounded=0;fontSize=16;" vertex="1" parent="1">
          <mxGeometry x="353.75" y="534" width="131.5" height="30" as="geometry" />
        </mxCell>
        <mxCell id="VnCZ31i4uOvUYMF_YGHu-23" style="edgeStyle=none;curved=1;rounded=0;orthogonalLoop=1;jettySize=auto;html=1;exitX=1;exitY=0.5;exitDx=0;exitDy=0;entryX=0;entryY=0.5;entryDx=0;entryDy=0;fontSize=12;startSize=8;endSize=8;" edge="1" parent="1" source="VnCZ31i4uOvUYMF_YGHu-8" target="VnCZ31i4uOvUYMF_YGHu-11">
          <mxGeometry relative="1" as="geometry" />
        </mxCell>
        <mxCell id="VnCZ31i4uOvUYMF_YGHu-8" value="Database MCP Server" style="rounded=1;whiteSpace=wrap;html=1;fontSize=16;fillColor=#fad7ac;strokeColor=#b46504;" vertex="1" parent="1">
          <mxGeometry x="725" y="572" width="215" height="60" as="geometry" />
        </mxCell>
        <mxCell id="VnCZ31i4uOvUYMF_YGHu-24" style="edgeStyle=none;curved=1;rounded=0;orthogonalLoop=1;jettySize=auto;html=1;exitX=1;exitY=0.5;exitDx=0;exitDy=0;entryX=0;entryY=0.5;entryDx=0;entryDy=0;fontSize=12;startSize=8;endSize=8;" edge="1" parent="1" source="VnCZ31i4uOvUYMF_YGHu-9" target="VnCZ31i4uOvUYMF_YGHu-12">
          <mxGeometry relative="1" as="geometry" />
        </mxCell>
        <mxCell id="VnCZ31i4uOvUYMF_YGHu-9" value="CRM MCP Server" style="rounded=1;whiteSpace=wrap;html=1;fontSize=16;fillColor=#fad7ac;strokeColor=#b46504;" vertex="1" parent="1">
          <mxGeometry x="725" y="712" width="219" height="60" as="geometry" />
        </mxCell>
        <mxCell id="VnCZ31i4uOvUYMF_YGHu-25" style="edgeStyle=none;curved=1;rounded=0;orthogonalLoop=1;jettySize=auto;html=1;exitX=1;exitY=0.5;exitDx=0;exitDy=0;entryX=0;entryY=0.5;entryDx=0;entryDy=0;fontSize=12;startSize=8;endSize=8;" edge="1" parent="1" source="VnCZ31i4uOvUYMF_YGHu-10" target="VnCZ31i4uOvUYMF_YGHu-13">
          <mxGeometry relative="1" as="geometry" />
        </mxCell>
        <mxCell id="VnCZ31i4uOvUYMF_YGHu-10" value="Google Map MCP Server" style="rounded=1;whiteSpace=wrap;html=1;fontSize=16;fillColor=#fad7ac;strokeColor=#b46504;" vertex="1" parent="1">
          <mxGeometry x="725" y="857" width="221" height="60" as="geometry" />
        </mxCell>
        <mxCell id="VnCZ31i4uOvUYMF_YGHu-11" value="Databases" style="rounded=1;whiteSpace=wrap;html=1;fontSize=16;fillColor=#fad9d5;strokeColor=#ae4132;" vertex="1" parent="1">
          <mxGeometry x="999" y="572" width="185" height="60" as="geometry" />
        </mxCell>
        <mxCell id="VnCZ31i4uOvUYMF_YGHu-12" value="CRM systems" style="rounded=1;whiteSpace=wrap;html=1;fontSize=16;fillColor=#fad9d5;strokeColor=#ae4132;" vertex="1" parent="1">
          <mxGeometry x="995" y="713.5" width="185" height="60" as="geometry" />
        </mxCell>
        <mxCell id="VnCZ31i4uOvUYMF_YGHu-13" value="Google Map systems" style="rounded=1;whiteSpace=wrap;html=1;fontSize=16;fillColor=#fad9d5;strokeColor=#ae4132;" vertex="1" parent="1">
          <mxGeometry x="995" y="857" width="185" height="60" as="geometry" />
        </mxCell>
        <mxCell id="VnCZ31i4uOvUYMF_YGHu-14" value="Query and fetch data&amp;nbsp;&lt;div&gt;Modify records&lt;/div&gt;&lt;div&gt;Handle data streams&lt;/div&gt;" style="text;strokeColor=none;fillColor=none;html=1;align=center;verticalAlign=middle;whiteSpace=wrap;rounded=0;fontSize=14;" vertex="1" parent="1">
          <mxGeometry x="750" y="642" width="165" height="60" as="geometry" />
        </mxCell>
        <mxCell id="VnCZ31i4uOvUYMF_YGHu-15" value="Create/update contacts&amp;nbsp;&lt;div&gt;Manage opportunities&lt;/div&gt;&lt;div&gt;Track interactions&lt;/div&gt;" style="text;strokeColor=none;fillColor=none;html=1;align=center;verticalAlign=middle;whiteSpace=wrap;rounded=0;fontSize=14;" vertex="1" parent="1">
          <mxGeometry x="737" y="784" width="191" height="60" as="geometry" />
        </mxCell>
        <mxCell id="VnCZ31i4uOvUYMF_YGHu-16" value="Covert an address into geographic coordinates&lt;div&gt;Get directions between two points&amp;nbsp;&lt;/div&gt;" style="text;strokeColor=none;fillColor=none;html=1;align=center;verticalAlign=middle;whiteSpace=wrap;rounded=0;fontSize=14;" vertex="1" parent="1">
          <mxGeometry x="740" y="930" width="191" height="91" as="geometry" />
        </mxCell>
        <mxCell id="VnCZ31i4uOvUYMF_YGHu-32" style="edgeStyle=none;curved=1;rounded=0;orthogonalLoop=1;jettySize=auto;html=1;exitX=1;exitY=0.5;exitDx=0;exitDy=0;fontSize=12;startSize=8;endSize=8;startArrow=classic;startFill=1;" edge="1" parent="1" source="VnCZ31i4uOvUYMF_YGHu-26" target="VnCZ31i4uOvUYMF_YGHu-29">
          <mxGeometry relative="1" as="geometry" />
        </mxCell>
        <mxCell id="VnCZ31i4uOvUYMF_YGHu-26" value="" style="rounded=1;whiteSpace=wrap;html=1;fontSize=16;" vertex="1" parent="1">
          <mxGeometry x="284" y="1166" width="263" height="120" as="geometry" />
        </mxCell>
        <mxCell id="VnCZ31i4uOvUYMF_YGHu-27" value="MCP Client" style="text;html=1;align=center;verticalAlign=middle;whiteSpace=wrap;rounded=0;fontStyle=1;fontSize=16;" vertex="1" parent="1">
          <mxGeometry x="307.5" y="1184" width="94" height="30" as="geometry" />
        </mxCell>
        <mxCell id="VnCZ31i4uOvUYMF_YGHu-28" value="Invokes &lt;b&gt;Tools&lt;/b&gt;&lt;div&gt;Queries for &lt;b&gt;Resources&amp;nbsp;&lt;/b&gt;&lt;/div&gt;&lt;div&gt;Interpolates &lt;b&gt;Prompts&lt;/b&gt;&lt;/div&gt;" style="text;html=1;align=left;verticalAlign=middle;whiteSpace=wrap;rounded=0;" vertex="1" parent="1">
          <mxGeometry x="321" y="1216" width="174" height="47" as="geometry" />
        </mxCell>
        <mxCell id="VnCZ31i4uOvUYMF_YGHu-29" value="" style="rounded=1;whiteSpace=wrap;html=1;fontSize=16;" vertex="1" parent="1">
          <mxGeometry x="707" y="1166" width="263" height="120" as="geometry" />
        </mxCell>
        <mxCell id="VnCZ31i4uOvUYMF_YGHu-30" value="MCP Server" style="text;html=1;align=center;verticalAlign=middle;whiteSpace=wrap;rounded=0;fontStyle=1;fontSize=16;" vertex="1" parent="1">
          <mxGeometry x="730.5" y="1184" width="94" height="30" as="geometry" />
        </mxCell>
        <mxCell id="VnCZ31i4uOvUYMF_YGHu-31" value="Expose &lt;b&gt;Tools&lt;/b&gt;&lt;div&gt;&lt;span style=&quot;background-color: transparent; color: light-dark(rgb(0, 0, 0), rgb(255, 255, 255));&quot;&gt;Expose &lt;b&gt;Resources&amp;nbsp;&lt;/b&gt;&lt;/span&gt;&lt;div&gt;Expose &lt;b&gt;Prompts&lt;/b&gt;&lt;/div&gt;&lt;/div&gt;" style="text;html=1;align=left;verticalAlign=middle;whiteSpace=wrap;rounded=0;" vertex="1" parent="1">
          <mxGeometry x="744" y="1216" width="174" height="47" as="geometry" />
        </mxCell>
        <mxCell id="VnCZ31i4uOvUYMF_YGHu-33" value="MCP protocol" style="text;html=1;align=center;verticalAlign=middle;whiteSpace=wrap;rounded=0;" vertex="1" parent="1">
          <mxGeometry x="581" y="1191" width="101" height="30" as="geometry" />
        </mxCell>
      </root>
    </mxGraphModel>
  </diagram>
</mxfile>
